<?xml version="1.0" standalone="no"?>
<!DOCTYPE svg PUBLIC "-//W3C//DTD SVG 20010904//EN"
 "http://www.w3.org/TR/2001/REC-SVG-20010904/DTD/svg10.dtd">
<svg version="1.0" xmlns="http://www.w3.org/2000/svg"
 width="512.000000pt" height="512.000000pt" viewBox="0 0 512.000000 512.000000"
 preserveAspectRatio="xMidYMid meet">

<g transform="translate(0.000000,512.000000) scale(0.100000,-0.100000)"
fill="#000000" stroke="none">
<path fill="#ff0000" d="M2305 5073 c-96 -13 -276 -48 -380 -74 -997 -254 -1735 -1071 -1891
-2094 -24 -153 -24 -548 0 -696 112 -709 491 -1319 1071 -1721 238 -165 535
-298 843 -378 194 -51 272 -61 517 -67 381 -9 582 17 889 117 395 129 703 313
1000 600 372 360 612 801 723 1329 24 116 27 149 31 423 3 244 1 317 -13 404
-113 721 -506 1337 -1110 1739 -269 179 -596 313 -929 380 -159 32 -619 55
-751 38z m560 -512 c436 -65 813 -250 1130 -553 285 -272 474 -602 581 -1014
l29 -109 0 -325 0 -325 -33 -130 c-213 -827 -861 -1419 -1697 -1551 -174 -27
-469 -23 -655 9 -378 66 -688 208 -970 443 -94 78 -272 260 -332 339 -161 214
-296 504 -369 795 -23 90 -24 111 -24 415 0 317 0 321 28 430 34 136 60 215
105 325 185 452 540 834 977 1053 205 102 430 173 640 201 155 21 435 20 590
-3z"/>
<path fill="#ff0000" d="M1950 2524 c0 -1145 1 -1216 17 -1210 10 4 99 57 198 118 99 61 469
288 821 504 704 431 934 573 948 585 10 9 -22 30 -534 344 -223 136 -635 389
-916 561 -282 173 -517 314 -523 314 -8 0 -11 -338 -11 -1216z"/>
</g>
</svg>
