<?xml version="1.0" standalone="no"?>
<!DOCTYPE svg PUBLIC "-//W3C//DTD SVG 20010904//EN"
 "http://www.w3.org/TR/2001/REC-SVG-20010904/DTD/svg10.dtd">
<svg version="1.0" xmlns="http://www.w3.org/2000/svg"
 width="820.000000pt" height="819.000000pt" viewBox="0 0 820.000000 819.000000"
 preserveAspectRatio="xMidYMid meet">

<g transform="translate(0.000000,819.000000) scale(0.100000,-0.100000)"
fill="#0079fe" stroke="none">
<path d="M714 7525 c-133 -29 -256 -120 -322 -238 -63 -111 -62 -104 -62 -838
l0 -666 88 43 c48 24 123 54 167 66 l80 23 3345 3 c2506 2 3367 0 3434 -8 105
-14 205 -47 291 -95 35 -19 66 -35 70 -35 4 0 5 161 3 358 -4 331 -6 361 -25
413 -61 164 -185 277 -349 319 -76 20 -116 20 -2135 20 l-2058 0 -34 43 c-19
23 -91 128 -160 232 -139 212 -218 298 -314 343 l-58 27 -950 2 c-761 1 -962
-1 -1011 -12z"/>
<path d="M710 5579 c-181 -29 -324 -173 -365 -369 -23 -107 -23 -4036 0 -4123
45 -173 178 -307 350 -352 53 -13 430 -15 3375 -15 3617 0 3357 -4 3478 57
123 61 230 211 252 353 6 42 10 747 10 2020 -1 1613 -3 1968 -14 2032 -21 115
-72 212 -150 286 -72 67 -136 96 -244 112 -86 12 -6615 11 -6692 -1z m4474
-825 l26 -27 0 -703 0 -703 -24 -27 c-18 -21 -32 -28 -60 -28 -34 0 -49 12
-219 182 -100 100 -186 182 -190 182 -14 0 -267 -189 -382 -285 -140 -118
-325 -309 -391 -406 -94 -135 -159 -287 -183 -423 -16 -89 -13 -285 5 -374 50
-246 178 -418 389 -523 96 -48 241 -89 318 -89 37 0 87 -49 87 -85 0 -16 -12
-38 -29 -56 -27 -27 -35 -29 -103 -29 -571 1 -1076 365 -1258 909 -68 203 -99
565 -66 776 65 425 293 747 804 1133 l153 115 -186 187 c-190 191 -199 205
-173 253 25 48 3 46 749 47 l706 0 27 -26z"/>
</g>
</svg>
